<?xml version="1.0" encoding="UTF-8" standalone="no"?>
<svg
   id="a"
   viewBox="0 0 930.05 77.11"
   version="1.1"
   xmlns="http://www.w3.org/2000/svg"
   xmlns:svg="http://www.w3.org/2000/svg">
  <defs
     id="defs826">
    <style
       id="style824">.b{fill:#414b54;}</style>
  </defs>
  <path
     class="b"
     d="M44.98,22.63h-.17c-3.65-4.41-9.76-6.53-18.41-6.53C12.64,16.1,0,23.65,0,40.88s12.64,24.78,26.39,24.78c9.42,0,15.27-2.38,19.09-6.79h.17v4.92h20.54V3.83h-21.21V22.63Zm-11.63,28.77c-8.23,0-11.62-4.41-11.62-10.52s3.9-10.53,11.54-10.53c8.23,0,11.71,3.99,11.71,10.53s-3.48,10.52-11.63,10.52Z"
     id="path828"
     style="fill:#ffffff" />
  <path
     class="b"
     d="M105.05,15.5c-20.88,0-33.09,9-33.09,25.03,0,16.97,12.73,25.12,35.04,25.12,9.76,0,17.06-1.53,22.49-4.24,5.43-2.71,8.99-6.7,10.6-11.54h-22.57c-2.29,2.89-5.52,4.07-11.03,4.07-9.33,0-12.81-5.09-12.81-8.4h46.67c.34-23.17-14.76-30.04-35.3-30.04Zm-11.37,19.35c1.1-5.86,5.35-8.15,12.73-8.15s12.14,3.14,12.56,8.15h-25.29Z"
     id="path830"
     style="fill:#ffffff" />
  <path
     class="b"
     d="M167.16,26.28h-.17v-8.91h-20.54V63.79h21.21v-17.4c0-10.02,8.06-12.48,15.61-12.48,3.74,0,6.88,.76,10.61,1.7V16.6c-2.29-.34-4.67-.51-6.96-.51-7.29,0-14.25,2.97-19.77,10.19Z"
     id="path832"
     style="fill:#ffffff" />
  <path
     class="b"
     d="M268.47,16.09c-8.57,0-14.17,3.48-17.06,7.72-2.46-4.58-6.2-7.72-15.36-7.72s-14.01,3.31-17.32,7.64h-.16v-6.37h-20.54V63.79h21.21v-24.61c0-5.69,2.8-7.81,7.21-7.81,3.73,0,5.69,1.53,5.69,6.2v26.22h20.54v-24.61c0-5.69,2.8-7.81,7.21-7.81,3.73,0,5.69,1.53,5.69,6.2v26.22h21.21V31.8c0-11.29-8.15-15.7-18.33-15.7Z"
     id="path834"
     style="fill:#ffffff" />
  <path
     class="b"
     d="M358.92,34.17c0-13.83-8.57-18.67-30.21-18.67-11.2,0-18.93,.85-24.1,3.23-5.26,2.46-7.89,6.36-9.17,12.73h21.21c1.02-4.5,5.86-5.26,10.69-5.26,6.03,0,9.84,1.44,9.84,4.5,0,2.55-1.44,3.56-5.68,3.82l-17.91,.85c-15.7,.68-21.72,6.11-21.72,14.59,0,11.88,9,15.7,23.25,15.7,11.29,0,18.5-2.04,23.26-6.45,.08,1.7,.33,3.23,.76,4.58h21.73c-1.02-1.53-1.95-3.65-1.95-7.21v-22.4Zm-21.22,10.52c0,7.97-7.89,9.76-15.02,9.76-5.26,0-7.89-2.04-7.89-5.26,0-2.98,1.87-4.25,5.77-4.58,7.55-.68,13.58-1.19,17.14-1.95v2.04Z"
     id="path836"
     style="fill:#ffffff" />
  <rect
     class="b"
     x="367.05"
     y="3.86"
     width="21.22"
     height="59.93"
     id="rect838"
     style="fill:#ffffff" />
  <path
     class="b"
     d="M428.4,15.5c-23.93,0-34.37,7.98-34.37,25.03s10.44,25.12,34.37,25.12,34.37-7.98,34.37-25.12-10.44-25.03-34.37-25.03Zm0,36.41c-8.49,0-12.14-3.9-12.14-11.37s3.65-11.29,12.14-11.29,12.13,3.99,12.13,11.29-3.56,11.37-12.13,11.37Z"
     id="path840"
     style="fill:#ffffff" />
  <path
     class="b"
     d="M513.16,22.63c-4.24-4.16-10.6-6.53-19.09-6.53-15.78,0-28.09,7.8-28.09,22.4s9.85,22.4,28.09,22.4c7.55,0,14.17-1.27,18.42-5.01v1.81c0,6.36-2.97,9.08-11.63,9.08-3.23,0-5.42-.66-7.05-1.19-1.98-.65-2.63-1.81-2.63-1.81h-23.42c2.47,7.24,10.44,13.32,33.61,13.32,21.21,0,32.33-3.96,32.33-18.81V17.36h-20.54v5.26Zm-12.9,25.54c-8.74,0-12.05-4.24-12.05-9.25s3.31-9.08,12.05-9.08,12.22,4.24,12.22,9.08-3.23,9.25-12.22,9.25Z"
     id="path842"
     style="fill:#ffffff" />
  <rect
     class="b"
     x="542.02"
     y="3.94"
     width="21.21"
     height="8.84"
     id="rect844"
     style="fill:#ffffff" />
  <rect
     class="b"
     x="542.02"
     y="17.37"
     width="21.21"
     height="46.42"
     id="rect846"
     style="fill:#ffffff" />
  <path
     class="b"
     d="M602.34,28.74c2.72,0,5.68,.42,7.63,1.44,2.38,1.19,3.73,2.97,3.99,5.86h22.24c-2.29-15.44-14.17-20.54-34.12-20.54s-34.79,5.94-34.79,24.95,15.27,25.2,34.79,25.2c14.6,0,31.91-2.21,34.12-21.47h-22.24c-1.44,6.02-5.86,7.72-11.8,7.72-8.4,0-12.64-4.58-12.64-11.71,0-6.2,3.31-11.46,12.82-11.46Z"
     id="path848"
     style="fill:#ffffff" />
  <path
     class="b"
     d="M705.61,34.17c0-13.83-8.57-18.67-30.21-18.67-11.2,0-18.93,.85-24.1,3.23-5.26,2.46-7.89,6.36-9.17,12.73h21.21c1.02-4.5,5.86-5.26,10.7-5.26,6.02,0,9.84,1.44,9.84,4.5,0,2.55-1.44,3.56-5.68,3.82l-17.9,.85c-15.7,.68-21.73,6.11-21.73,14.59,0,11.88,9,15.7,23.25,15.7,11.29,0,18.5-2.04,23.26-6.45,.08,1.7,.33,3.23,.76,4.58h21.72c-1.02-1.53-1.95-3.65-1.95-7.21v-22.4Zm-21.22,10.52c0,7.97-7.89,9.76-15.02,9.76-5.26,0-7.89-2.04-7.89-5.26,0-2.98,1.87-4.25,5.77-4.58,7.55-.68,13.58-1.19,17.14-1.95v2.04Z"
     id="path850"
     style="fill:#ffffff" />
  <path
     class="b"
     d="M769.39,1.61h-34.44v63.87h6.62v-26.84h24.87c14.23,0,22.18-6.53,22.18-18.61,0-13.51-9.39-18.43-19.23-18.43Zm-2.24,30.95h-25.58V7.69h26.93c7.6,0,12.97,2.78,12.97,12.35,0,7.43-3.22,12.52-14.31,12.52Z"
     id="path852"
     style="fill:#ffffff" />
  <path
     class="b"
     d="M840.95,34.53v-.18c8.31-1.88,12.52-8.68,12.52-15.48,0-13.42-9.93-17.27-20.75-17.27h-34.8v63.87h6.62v-28.08h25.68c11,0,15.29,3.76,15.47,15.02,.09,6.98,.54,11.72,1.7,13.06h7.16c-1.52-1.43-2.06-9.21-2.24-13.24-.45-10.46-2.32-16.28-11.36-17.71Zm-36.41-3.22V7.69h28.63c6.08,0,13.15,1.79,13.15,11.19s-6.53,12.44-13.78,12.44h-28Z"
     id="path854"
     style="fill:#ffffff" />
  <path
     class="b"
     d="M895.34,0c-18.16,0-34.71,11-34.71,33.54s16.55,33.54,34.71,33.54,34.71-11,34.71-33.54S913.5,0,895.34,0Zm0,61c-14.04,0-27.55-8.23-27.55-27.46s13.51-27.46,27.55-27.46,27.55,8.23,27.55,27.46-13.51,27.46-27.55,27.46Z"
     id="path856"
     style="fill:#ffffff" />
</svg>
