<svg width="24" height="24" viewBox="0 0 24 24" fill="none" xmlns="http://www.w3.org/2000/svg">
<path d="M11.9609 23.9219C13.5949 23.9219 15.133 23.6092 16.5753 22.9837C18.0176 22.3584 19.29 21.4945 20.3922 20.3922C21.4945 19.29 22.3584 18.0176 22.9837 16.5753C23.6092 15.133 23.9219 13.5949 23.9219 11.9609C23.9219 10.3271 23.6092 8.78894 22.9837 7.34659C22.3584 5.90425 21.4945 4.63193 20.3922 3.52964C19.29 2.42737 18.0157 1.56352 16.5694 0.938113C15.1232 0.312704 13.5831 0 11.9492 0C10.3153 0 8.77722 0.312704 7.33487 0.938113C5.89252 1.56352 4.62216 2.42737 3.52379 3.52964C2.42541 4.63193 1.56352 5.90425 0.938113 7.34659C0.312704 8.78894 0 10.3271 0 11.9609C0 13.5949 0.312704 15.133 0.938113 16.5753C1.56352 18.0176 2.42737 19.29 3.52964 20.3922C4.63193 21.4945 5.90425 22.3584 7.34659 22.9837C8.78894 23.6092 10.3271 23.9219 11.9609 23.9219Z" fill="#DBDBD9"/>
<path d="M11.9847 18.0001C11.7189 18.0001 11.5 17.9161 11.328 17.7481C11.156 17.58 11.07 17.3591 11.07 17.0855V11.0699L11.1639 8.50177L9.95603 9.95585L8.52541 11.3982C8.3456 11.578 8.13062 11.6679 7.88045 11.6679C7.63029 11.6679 7.42117 11.5839 7.25309 11.4158C7.08502 11.2477 7.00098 11.0386 7.00098 10.7884C7.00098 10.5304 7.08306 10.3194 7.24723 10.1552L11.2811 6.14476C11.5078 5.91023 11.7423 5.79297 11.9847 5.79297C12.227 5.79297 12.4616 5.91023 12.6883 6.14476L16.7222 10.1552C16.8864 10.3272 16.9685 10.5383 16.9685 10.7884C16.9685 11.0386 16.8825 11.2477 16.7104 11.4158C16.5385 11.5839 16.3274 11.6679 16.0772 11.6679C15.8114 11.6679 15.5964 11.578 15.4323 11.3982L14.0133 9.95585L12.7938 8.49004L12.8876 11.0699V17.0855C12.8876 17.3591 12.8036 17.58 12.6356 17.7481C12.4675 17.9161 12.2505 18.0001 11.9847 18.0001Z" fill="white"/>
</svg>
